<svg xmlns="http://www.w3.org/2000/svg" viewBox="0 0 13.969 13.969"><path d="M5.677 0a5.677 5.677 0 1 1-.001 11.353A5.677 5.677 0 0 1 5.677 0z" clip-rule="evenodd" fill="#5d6063"/><path d="M9.287 9.584l.297-.297a.419.419 0 0 1 .593 0l1.484 1.484a.42.42 0 0 1 0 .594l-.297.297a.42.42 0 0 1-.594 0l-1.484-1.484a.421.421 0 0 1 .001-.594z" clip-rule="evenodd" fill="#5d6063"/><path d="M10.172 11.17l.998-.998a.47.47 0 0 1 .666 0l1.996 1.996a.47.47 0 0 1 0 .665l-.998.998a.47.47 0 0 1-.665 0l-1.996-1.996a.469.469 0 0 1-.001-.665z" clip-rule="evenodd" fill="#5d6063"/><path d="M5.677 2.187a3.49 3.49 0 1 1-.001 6.981 3.49 3.49 0 0 1 .001-6.981z" fill-rule="evenodd" clip-rule="evenodd" fill="#35383c"/></svg>